#!OML:ASF F:\VICON\USERDATA\INSTALL\rory3\rory3.ASF
:FULLY-SPECIFIED
:DEGREES
77
root 0.39357868429862414 17.586497075534332 28.791934194227217 -1.9690464770557767 0.29128533658106437 1.81071078848016
lfemur 11.951613778373163 -4.025797955377843 -26.756307498439817
ltibia 27.15096449639234
lfoot -7.747466294448231 -4.280890987366364
ltoes -5.277818846275982
rfemur -23.754631684646256 5.870159285271562 19.65822783755867
rtibia 35.12192975124391
rfoot -6.832165539068193 -5.935825614987416
rtoes 4.272755954593525
lowerback 10.050393732954838 -0.5886742397764357 -2.4752810787753066
upperback 0.6626481413290013 -1.274754729836735 1.5258792458233565
thorax -4.569995200682138 -0.2469757774084 3.1718856236985458
lowerneck -16.0281144970357 -2.796278802636108 -2.2362458984004383
upperneck 20.941952196131687 -3.3148640008259944 1.0698040698339388
head 9.311216017473694 -1.6898876839904526 0.1482875462978192
lclavicle -1.3879679699872653e-15 -1.8442003054903092e-15
lhumerus -23.310653463191045 -2.3420307270530625 81.67272544033926
lradius 24.25497997373021
lwrist 4.917646751377507
lhand -27.301519463692514 23.745201028570175
lfingers 7.125019999999999
lthumb -0.5016935859846042 54.20272469469144
rclavicle -1.388973382687429e-15 -1.845134554215554e-15
rhumerus -36.328552463883625 -29.89387125947353 -71.36828446031751
rradius 25.709386288979857
rwrist 7.786263554495631
rhand -18.373587194081086 22.72253903467654
rfingers 7.125019999999999
rthumb 7.982518445540139 -7.001839978768054
78
root 0.3054459385952442 17.56408143969259 30.12561712111733 -2.115875042443505 0.2768405115969532 1.2934635095200773
lfemur 13.271930423468033 -5.205598789322086 -26.17467075362287
ltibia 29.277639524893154
lfoot -6.761595491638253 -4.1762234736417705
ltoes -5.182669494446216
rfemur -23.51803056046787 5.8129950902247405 20.314153981907126
rtibia 35.753713777851466
rfoot -7.253718669411183 -5.896280743178902
rtoes 4.616161934009637
lowerback 9.924480397691584 -0.5778421893363819 -2.073776783455941
upperback 0.6005218020467301 -1.2382509620766808 1.688322954782822
thorax -4.565031467898152 -0.23803200644402672 3.1127829935450584
lowerneck -16.047737159053597 -2.7745839170828943 -2.248515730346119
upperneck 20.874017734230364 -3.2928614334464807 0.9883659787086144
head 9.312748920646031 -1.6811982205112246 0.13981390106910002
lclavicle -1.3879679699872064e-15 -1.8442003054902548e-15
lhumerus -24.171277939168277 -1.5618128646269591 81.91424157750328
lradius 23.71240417442646
lwrist 4.537094849191892
lhand -27.24168476029368 23.867312974132957
lfingers 7.125019999999999
lthumb -0.5093174137065303 54.252068719175796
rclavicle -1.3889733826874059e-15 -1.8451345542155327e-15
rhumerus -37.22251020408314 -31.309191192058275 -70.2467133950741
rradius 25.57669174733347
rwrist 8.162251683485023
rhand -18.418695877430753 22.659909941130458
rfingers 7.125019999999999
rthumb 7.991108531238022 -7.002119679860747
79
root 0.22401060380314824 17.57844014046033 31.49052342631567 -2.3749254276011094 0.20943539858046423 0.4593895888272801
lfemur 13.762976064344462 -6.72770379238742 -25.350644057354625
ltibia 32.40069838563844
lfoot -5.66663905463685 -3.9521326920977264
ltoes -5.118484950757789
rfemur -22.771434262994887 5.531259909039761 21.4386879646587
rtibia 36.38416263429055
rfoot -7.374412725475163 -5.74190790554651
rtoes 4.738531913709229
lowerback 9.80694045692887 -0.5427244798907127 -1.502850586214863
upperback 0.544327371710185 -1.1269160214190668 1.8717215763917672
thorax -4.579830223048294 -0.19729881877701477 2.9748083918754284
lowerneck -16.062663606239106 -2.748316543161266 -2.246753996806667
upperneck 20.883435248161042 -3.2507940300833367 0.9751897421684873
head 9.31127717367233 -1.679468541707388 0.12798880118318284
lclavicle -1.3879679699873127e-15 -1.8442003054903534e-15
lhumerus -25.414023335186947 -0.925143447057228 82.16995706588736
lradius 23.18534169033667
lwrist 4.074784061025991
lhand -27.312369724219213 23.741861025436304
lfingers 7.125019999999999
lthumb -0.6828127381382014 53.99112228596198
rclavicle -1.388973382687378e-15 -1.8451345542155067e-15
rhumerus -37.92811902713747 -32.560144674934094 -69.30057162225592
rradius 25.36184735121044
rwrist 8.392273299450515
rhand -18.37773955958381 22.710040439708102
rfingers 7.125019999999999
rthumb 8.022576407194597 -6.968510473635401
80
root 0.1484800023935952 17.62140619311186 32.62008748857819 -2.716316112804285 0.13069657696325399 -0.6030311523935059
lfemur 11.88832136384683 -6.864752452052638 -24.072185264425404
ltibia 36.485645719013725
lfoot -4.45404986259547 -3.6910879128153438
ltoes -5.217704305643021
rfemur -22.335214736721476 5.205247314120495 22.469889176938455
rtibia 36.86597932208662
rfoot -7.166322711086755 -5.509140791582598
rtoes 4.942304467348244
lowerback 9.726942669695685 -0.464084143571387 -0.7807281423770629
upperback 0.5054808923194736 -0.9171317295850794 2.059835073163673
thorax -4.601596883904306 -0.1252398789974818 2.789102803940466
lowerneck -16.082859127209353 -2.7259964985715888 -2.2350562225898205
upperneck 20.854617790264395 -3.252823649616994 0.9412792239333129
head 9.28468236642313 -1.6912780098025963 0.11497233876552965
lclavicle -1.3879679699872174e-15 -1.844200305490265e-15
lhumerus -26.51983511722829 -0.22853984670378802 82.51843557050762
lradius 22.65307883993281
lwrist 3.36204256561687
lhand -27.32058572017876 23.789855854055162
lfingers 7.125019999999999
lthumb -0.6949066145001406 54.02863657394402
rclavicle -1.3889733826873789e-15 -1.8451345542155074e-15
rhumerus -38.150328536668795 -33.1930528897435 -68.79125079702176
rradius 24.95626957934749
rwrist 8.515881536881604
rhand -18.35878374842065 22.760220993669574
rfingers 7.125019999999999
rthumb 8.043387463708983 -6.940367960472477
